<?xml version="1.0" encoding="UTF-8"?>
<svg id="Layer_2" data-name="Layer 2" xmlns="http://www.w3.org/2000/svg" viewBox="0 0 287.53 59.84">
  <defs>
    <style>
      .cls-1 {
        fill: #cc2729;
      }

      .cls-2 {
        fill: #f7f7f4;
      }

      .cls-3 {
        fill: #fff;
      }
    </style>
  </defs>
  <g id="Layer_1-2" data-name="Layer 1">
    <g>
      <g>
        <path class="cls-2" d="M66.35,37.36l-.16.06c-1.08-2.64-2.46-3.42-3.96-3.42-1.84,0-2.7,1.12-2.7,2.48,0,2.02,1.82,2.74,3.72,3.62,2.02.92,4.1,1.92,4.1,4.64,0,2.94-2.4,4.1-5.14,4.1-1.36,0-2.76-.3-3.96-.76l-.4-3.24.16-.06c1.2,2.54,2.6,3.66,4.68,3.66s3.16-1.26,3.16-2.96c0-2.18-1.66-3.04-3.48-3.86-2.04-.94-4.12-1.84-4.12-4.4s1.96-3.62,4.46-3.62c1.2,0,2.36.26,3.24.6l.4,3.16Z"/>
        <path class="cls-2" d="M69.97,41.24c0-4.28,3.44-7.64,7.4-7.64s7.44,3.36,7.44,7.64-3.46,7.6-7.44,7.6-7.4-3.32-7.4-7.6ZM82.93,41.24c0-4.12-1.96-7.24-5.56-7.24s-5.52,3.12-5.52,7.24,1.94,7.2,5.52,7.2,5.56-3.06,5.56-7.2Z"/>
        <path class="cls-2" d="M88.41,43.78v-6.84c0-1.4-.14-1.96-.8-3v-.04h3.24v.04c-.54.86-.8,1.6-.8,3v6.78c0,3.44,1.8,4.66,4.18,4.66,3.22,0,4.24-2.3,4.24-4.84v-6.3c0-1.5-.26-2.12-1.44-3.3v-.04h3.18l.04.04c-1.08,1.18-1.34,1.8-1.34,3.3v6.28c0,2.86-1.24,5.32-5.04,5.32-2.96,0-5.46-1.46-5.46-5.06Z"/>
        <path class="cls-2" d="M110.32,48.54h-3.24v-.04c.66-1.02.8-1.6.8-2.96v-11.28l-2.66.08c-.74.02-1.92,2.04-2.78,3.36l-.16-.06.76-3.74h11.3l.78,3.74-.16.06c-.88-1.32-2.06-3.34-2.8-3.36l-2.64-.08v11.28c0,1.38.14,1.94.8,2.96v.04Z"/>
        <path class="cls-2" d="M117.5,48.5c.64-1.02.8-1.6.8-2.96v-8.64c0-1.36-.16-1.94-.8-2.96v-.04h3.24v.04c-.66,1.02-.8,1.58-.8,2.96v3.88h7.74v-3.88c0-1.36-.14-1.94-.8-2.96v-.04h3.24v.04c-.64,1.02-.8,1.58-.8,2.96v8.64c0,1.38.16,1.94.8,2.96v.04h-3.24v-.04c.66-1.02.8-1.6.8-2.96v-4.36h-7.74v4.36c0,1.38.14,1.94.8,2.96v.04h-3.24v-.04Z"/>
        <path class="cls-2" d="M139.8,48.54h-2.44v-.04c.84-.84,1.08-1.46,1.6-2.86l4.42-11.92h.48l4.48,12.12c.6,1.6.86,2.06,1.54,2.66v.04h-3.18v-.04c.3-.46.42-1.4-.08-2.74l-1-2.74h-5.22l-.82,2.24c-.66,1.76-.2,2.72.22,3.24v.04ZM143.04,35.87l-2.48,6.74h4.92l-2.44-6.74Z"/>
        <path class="cls-2" d="M155.8,48.54h-3.24v-.04c.64-1,.8-1.58.8-2.9v-8.76c0-1.34-.16-1.9-.8-2.9v-.04h9.18l.7,3.2-.18.06c-.96-1.18-2.04-2.8-2.78-2.82l-4.48-.12v6.56h2.72c.74,0,1.38-1.2,1.9-1.88h.18v4.08h-.18c-.5-.62-1.16-1.8-1.9-1.8h-2.72v4.42c0,1.34.14,1.9.8,2.9v.04Z"/>
        <path class="cls-2" d="M164.83,48.5c.64-1.02.8-1.6.8-2.96v-8.64c0-1.36-.16-1.94-.8-2.96v-.04h5.12c3.22,0,4.54,1.38,4.54,3.46,0,1.78-.9,3.32-2.84,3.94l2.44,4.64c.78,1.52,1.26,2.06,2.24,2.52v.08h-2.76l-3.62-6.98h-2.68v3.98c0,1.38.14,1.94.8,2.96v.04h-3.24v-.04ZM167.27,34.32v6.84h2.38c2.4,0,3.14-1.78,3.14-3.8,0-1.82-.72-3.06-3.16-3.06-.38,0-1.22,0-2.36.02Z"/>
        <path class="cls-2" d="M179.04,48.5c.66-1.02.8-1.6.8-2.96v-8.64c0-1.36-.14-1.94-.8-2.96v-.04h3.24v.04c-.66,1.02-.8,1.58-.8,2.96v8.64c0,1.38.14,1.94.8,2.96v.04h-3.24v-.04Z"/>
        <path class="cls-2" d="M198.1,47.34c-.56.42-2.84,1.5-5.44,1.5-4.6,0-7.42-3.36-7.42-7.64s3.14-7.6,7.86-7.6c2.02,0,3.9.56,4.92.98l.4,3.04-.16.04c-1.62-2.6-3.04-3.66-5.32-3.66-4.02,0-5.82,3.08-5.82,7.2s1.76,7.24,5.58,7.24c2.92,0,4.44-1.74,5.64-4.5l.16.06-.4,3.34Z"/>
        <path class="cls-2" d="M203.07,48.54h-2.44v-.04c.84-.84,1.08-1.46,1.6-2.86l4.42-11.92h.48l4.48,12.12c.6,1.6.86,2.06,1.54,2.66v.04h-3.18v-.04c.3-.46.42-1.4-.08-2.74l-1-2.74h-5.22l-.82,2.24c-.66,1.76-.2,2.72.22,3.24v.04ZM206.31,35.87l-2.48,6.74h4.92l-2.44-6.74Z"/>
      </g>
      <g>
        <path class="cls-2" d="M61.88,25.92c-1.3,0-2.55-.23-3.56-.65l-.49-5.38.42-.13c2.05,3.48,2.99,5.3,4.08,5.3.88,0,1.53-1.2,1.53-3.46v-9.39c0-2.65-.31-3.74-1.14-5.67v-.05h6.92v.05c-.78,1.92-1.12,3.07-1.12,5.64v7.7c0,3.9-2.68,6.03-6.63,6.03Z"/>
        <path class="cls-2" d="M70.72,16.04c0-5.59,4.52-9.93,10.11-9.93s10.14,4.34,10.14,9.93-4.55,9.88-10.14,9.88-10.11-4.29-10.11-9.88ZM85.91,16.04c0-5.51-1.59-9.05-5.07-9.05s-5.04,3.56-5.04,9.05,1.59,9.02,5.04,9.02,5.07-3.51,5.07-9.02Z"/>
        <path class="cls-2" d="M98.26,6.49v.05c-1.09,1.25-1.12,3.02-.44,5.2l2.78,8.92,3.12-8.87-.18-.52c-.62-1.87-1.25-3.61-2.31-4.73v-.05h7.96v.05c-1.07,1.2-1.22,2.99-.49,5.2l2.89,8.81,2.55-8.06c.88-2.86.42-4.73-.99-5.95v-.05h4.97v.05c-1.12,1.09-1.92,2.78-2.6,4.91l-4.47,14.14h-2.73l-4.08-12.3-4.34,12.3h-2.73l-4.47-14.14c-.62-1.95-1.33-3.74-2.44-4.91v-.05h8.03Z"/>
        <path class="cls-2" d="M133.69,25.92c-6.29,0-10.35-4.03-10.35-9.67s4.06-10.14,11.23-10.14c2.78,0,4.78.55,6.42.96l.55,5.07-.42.1c-2.76-3.74-4.39-5.25-6.97-5.25-4.21,0-5.75,3.82-5.75,9.23s1.56,8.84,5.36,8.84c2.26,0,4.08-1.17,4.16-3.77.08-1.95-.49-3.09-1.48-4.5v-.05h6.63v.05c-.83,1.85-1.09,3.22-1.09,5.43v.78c-.99.78-3.69,2.91-8.29,2.91Z"/>
        <path class="cls-2" d="M143,25.53v-.05c1.12-1.07,2-2.73,2.78-4.86l5.15-14.2h2.91l5.2,14.33c.73,2.03,1.51,3.61,2.44,4.73v.05h-7.8v-.05c.94-1.2,1.25-2.96.47-5.2l-.6-1.69h-6.08l-.36,1.04c-1.07,2.94-.39,4.84.99,5.85v.05h-5.1ZM153.25,17.7l-2.68-7.64-2.76,7.64h5.43Z"/>
        <path class="cls-2" d="M169.52,25.48c.83-1.92,1.14-3.02,1.14-5.67v-7.59c0-2.65-.31-3.74-1.14-5.67v-.05h6.94v.05c-.81,1.92-1.12,3.07-1.12,5.64v7.64c0,2.57.31,3.72,1.12,5.64v.05h-6.94v-.05ZM181.74,25.53l-6.11-9.39,4.52-4.94c1.92-2.05,1.85-3.56.99-4.65v-.05h6.34v.05c-2.42,1.12-4.39,2.73-5.9,4.34l-2.16,2.42,5.33,8.14c1.2,1.85,2.13,3.09,3.46,4.03v.05h-6.47Z"/>
        <path class="cls-2" d="M189.85,18.56v-6.34c0-2.65-.34-3.74-1.14-5.67v-.05h6.99v.05c-.81,1.82-1.14,3.02-1.14,5.64v6.6c0,4.5,1.82,5.88,4.34,5.88,3.61,0,4.76-2.81,4.76-6.34v-5.93c0-2.73-.57-3.87-2.26-5.85v-.05h5.54l.03.05c-1.59,2-2.26,3.15-2.26,5.88v5.72c0,4.42-1.46,7.77-7.05,7.77-4.47,0-7.8-2.13-7.8-7.36Z"/>
        <path class="cls-2" d="M211.12,10.24l.1,9.44c0,2.65.65,3.8,2.13,5.8v.05h-5.28v-.05c1.51-2,2.11-3.09,2.11-5.82v-8.09c0-2.44-.57-3.38-2.05-5.02v-.05h5.98l9.59,11.96-.03-6.06c-.03-2.73-.6-3.82-2.08-5.85v-.05h5.17v.05c-1.43,2-2.05,3.15-2.05,5.8v13.16l-1.2.1-12.4-15.37Z"/>
        <path class="cls-2" d="M237.61,25.92c-6.29,0-10.35-4.03-10.35-9.67s4.06-10.14,11.23-10.14c2.78,0,4.78.55,6.42.96l.55,5.07-.42.1c-2.76-3.74-4.39-5.25-6.97-5.25-4.21,0-5.75,3.82-5.75,9.23s1.56,8.84,5.36,8.84c2.26,0,4.08-1.17,4.16-3.77.08-1.95-.49-3.09-1.48-4.5v-.05h6.63v.05c-.83,1.85-1.09,3.22-1.09,5.43v.78c-.99.78-3.69,2.91-8.29,2.91Z"/>
        <path class="cls-2" d="M260.52,25.53h-6.94v-.05c.83-1.92,1.14-3.02,1.14-5.67v-7.59c0-2.65-.31-3.74-1.14-5.67v-.05h13.88l1.01,5.25-.42.13c-1.38-1.38-3.69-4.29-4.99-4.37l-3.67-.26v8.09h1.72c1.43,0,2.76-1.61,3.64-2.6h.36v6.19h-.36c-.88-.94-2.18-2.7-3.67-2.7h-1.69v3.61c0,2.57.31,3.72,1.12,5.64v.05Z"/>
        <path class="cls-2" d="M270.43,18.56v-6.34c0-2.65-.34-3.74-1.14-5.67v-.05h6.99v.05c-.81,1.82-1.14,3.02-1.14,5.64v6.6c0,4.5,1.82,5.88,4.34,5.88,3.61,0,4.76-2.81,4.76-6.34v-5.93c0-2.73-.57-3.87-2.26-5.85v-.05h5.54l.03.05c-1.59,2-2.26,3.15-2.26,5.88v5.72c0,4.42-1.46,7.77-7.05,7.77-4.47,0-7.8-2.13-7.8-7.36Z"/>
      </g>
      <g>
        <path class="cls-3" d="M16.71,53.33c.71.02,1.07.34,1.07.98-.13.35-.39.69-.75,1.03-.11.11-.23.2-.33.27.03.02.04.04.05.04.02.02.03.09.05.21.02.12.04.19.04.23,0,.04-.06.11-.17.21-.1.05-.17.08-.22.08-.02,0-.15-.06-.38-.19-.15-.04-.29-.05-.41-.05-.09,0-.18,0-.29.02-.05,1-.1,1.99-.13,2.99-.1.43-.18.66-.23.67-.02,0-.06-.18-.13-.51-.03-.22-.06-.48-.1-.8-.04-.79-.08-1.52-.11-2.21-.06.02-.12.04-.18.05-.39.25-.61.38-.66.39,0,0-.02,0-.04-.03-.02.1-.04.18-.06.27-.16,0-.27-.08-.36-.24-.11-.15-.21-.38-.29-.69-.11-.4-.19-.79-.28-1.14-.07-.2-.1-.39-.1-.57h.14c.25.19.48.41.68.64.13.38.22.69.27.92.08-.04.17-.07.26-.11.19-.09.38-.15.59-.18,0-.21-.02-.41-.02-.6,0-.19.03-.39.04-.58-.24.1-.49.21-.73.33-.38,0-.58-.1-.58-.32.32-.3.78-.55,1.37-.74,0-.15.03-.31.04-.46.02-.4.06-.7.12-.9-.04-.05-.09-.12-.13-.2-.12.14-.25.27-.38.4v-.42s.06-.06.11-.13c.06-.02.1-.03.14-.05h.26c.09.04.16.07.21.09.03.02.08.02.13.02.26.19.4.33.4.4-.09.22-.14.53-.18.95,0,.05,0,.09,0,.12.38-.08.79-.14,1.24-.18ZM16.65,53.99c-.39.02-.79.09-1.21.2,0,.21-.02.41-.03.62-.02.23-.03.46-.03.69.03,0,.05,0,.08-.02.23-.06.41-.1.54-.12.42-.45.64-.91.64-1.38Z"/>
        <path class="cls-3" d="M21.63,53.06c.18.26.27.48.27.64.11.04.22.07.32.11.28.13.43.34.43.62,0,.11-.1.26-.28.47-.18.28-.45.66-.8,1.16-.41.69-.83,1.21-1.25,1.55-.39.37-.82.54-1.31.54-.05,0-.07-.15-.07-.45,0-.11.02-.28.07-.5.07.21.15.31.24.32.16,0,.38-.16.64-.48.18-.19.38-.45.6-.78-.11-.07-.18-.13-.22-.19-.06-.07-.11-.13-.16-.18-.1-.12-.18-.23-.25-.3.04,0,.08.02.13.04.08-.08.22-.12.41-.12,0,0,.05,0,.13.02.07.02.13.04.2.06.04.02.1.04.15.08,0-.02.02-.04.03-.05.37-.55.56-.94.56-1.18-.17-.02-.33-.04-.48-.05-.09.08-.17.16-.25.24-.18.16-.36.31-.52.48-.3.33-.45.5-.46.5-.07,0-.12-.09-.16-.28-.03-.3-.04-.53-.04-.67.16-.16.31-.28.45-.38.15-.1.29-.23.41-.38.14-.11.25-.28.31-.52.07-.47.11-.76.13-.86.14,0,.4.18.77.53ZM23.53,51.84c.37.16.56.32.56.49,0,.18-.06.58-.17,1.18-.05.33-.11.8-.16,1.41.04,0,.08,0,.12,0,1.42.22,2.14.54,2.18.98,0,.31-.11.46-.3.46-.38,0-.93-.23-1.61-.68-.14-.06-.29-.11-.45-.15v.04c0,.35-.02.75-.04,1.17-.02.37-.03.6-.03.68,0,.17.04.51.11,1.02.02.36.04.61.04.78,0,.09-.04.18-.11.28-.05.07-.11.1-.18.1-.05,0-.18-.33-.37-.99-.18-.56-.25-.9-.25-1.02.06.12.12.22.18.3.09.14.15.2.18.2v-2.64c-.12,0-.25-.02-.38-.02.1-.16.23-.27.38-.36v-.42c0-.18,0-.56,0-1.14,0-.47,0-.77,0-.89,0-.08-.07-.23-.19-.45-.12-.24-.17-.41-.17-.48.09,0,.31.05.64.16Z"/>
        <path class="cls-3" d="M28.14,53.45c.24.18.36.33.36.49-.05.1-.11.33-.2.72-.03.42-.05.85-.05,1.28-.03.46-.03.83-.03,1.09-.08.47-.21.95-.39,1.41-.21.32-.4.48-.58.48-.07-.18-.1-.45-.1-.81.08.14.16.2.24.2.16-.27.26-.82.31-1.63.07-.7.11-1.58.12-2.63,0-.3-.12-.57-.36-.79.29.03.52.09.68.19ZM28.94,54.37c.24-.09.48-.16.7-.24,0-.16.01-.32.01-.47,0-.12-.03-.24-.06-.36,0-.03,0-.05,0-.08-.17.04-.33.08-.49.11-.29,0-.5-.02-.62-.06.76-.5,1.73-.86,2.9-1.08.53,0,.86.21,1.01.62,0,.39-.04.87-.09,1.41,0,.89.02,1.8.07,2.69,0,.86-.02,1.58-.02,2.16-.11.36-.28.54-.51.54-.37-.39-.77-.88-1.17-1.49.39.15.72.24.98.25.02-.64.03-1.8.03-3.47,0-1.37-.13-2.07-.38-2.07-.42.09-.89.2-1.41.32.1.05.2.12.31.21.16.13.24.25.24.35-.02.05-.03.11-.04.18.1-.04.21-.06.32-.09.19.05.34.14.43.26,0,.09-.03.16-.07.22-.3.2-.59.39-.87.57-.02.05-.03.1-.03.14.19-.06.38-.1.56-.14h.27c.19.03.33.17.43.43,0,.08-.05.14-.14.17-.1.04-.28.1-.56.17-.89.26-1.45.39-1.68.39-.14,0-.38-.18-.72-.54.14,0,.28,0,.42-.04.18-.05.35-.12.52-.17.03-.02.05-.04.09-.07.11-.07.19-.14.27-.21v-.17c-.16.04-.33.05-.48.07-.21-.04-.35-.21-.43-.51.02-.03.04-.04.09-.04.06.02.1.03.13.03ZM31.32,56.72c-.07.19-.2.39-.4.58-.04.04-.07.06-.1.08.06.07.1.17.11.29,0,.05-.17.12-.52.18-.35.09-.59.12-.73.12-.1,0-.17-.02-.22-.04-.02.05-.03.1-.04.15-.12,0-.21-.06-.28-.19-.09-.11-.17-.29-.22-.54-.05-.21-.09-.41-.12-.6-.03-.11-.04-.21-.04-.31h.11s.09.06.13.1c.32-.25.85-.42,1.57-.49.48,0,.73.23.73.67ZM29.52,57.48c.09-.02.19-.04.31-.07.14-.04.27-.06.39-.08.21-.26.32-.53.32-.81-.38.02-.78.13-1.21.34.1.29.17.49.18.61Z"/>
        <path class="cls-3" d="M34.81,53s.07.07.11.19c.04.09.07.16.09.22.31-.13.82-.26,1.56-.4h-.04c-.14,0-.29,0-.44-.02h-.35c.06-.04.12-.1.18-.16.1-.04.2-.08.29-.14.05-.09.09-.18.09-.27-.09-.16-.16-.29-.23-.39-.06-.11-.1-.24-.11-.38.11,0,.27.03.5.08.2.04.4.13.61.27.12.13.23.25.3.36.06.11.1.2.1.27-.04.11-.07.18-.1.25.19-.03.39-.05.61-.09.33,0,.65-.02.93-.06.42.03.68.31.8.83,0,.22-.11.35-.34.4-.15,0-.28-.04-.4-.14-.31.1-.69.17-1.15.2.09.11.13.23.13.38,0,.08-.48.42-1.43,1.02.37.07.65.18.84.36.21-.22.38-.39.54-.5-.12.25-.26.46-.41.64.08.11.13.22.17.33,0,.02,0,.03.02.04.35-.26.6-.61.76-1.05-.05-.11-.11-.18-.17-.21-.08-.04-.11-.11-.11-.19.03-.03.09-.05.17-.06.19.08.37.17.54.25.14.16.21.37.23.65,0,.16-.17.35-.49.58-.18.23-.45.44-.78.63h0c.32.06.62.1.92.11.49.04.8.05.91.07.16.17.28.33.37.48.08.16.12.33.14.49,0,.1-.03.19-.08.26-.14,0-.34-.1-.6-.3-.35-.16-.68-.29-1-.41-.22-.04-.43-.09-.63-.12-.05,1.2-.46,1.89-1.23,2.08-.49,0-.99-.29-1.48-.85-.11.07-.2.1-.27.1l-.16-.46v-.29c.28-.09.53-.24.75-.45.28-.23.43-.42.43-.58-.12,0-.24,0-.33.03-.06.04-.12.06-.17.09-.1.09-.23.2-.35.36-.23.18-.39.27-.52.27-.03,0-.05-.03-.08-.06,0-.22.06-.41.2-.59.16-.15.32-.29.46-.41.16-.12.3-.28.44-.46-.05,0-.1.02-.14.02-.52.38-.81.58-.88.58-.11,0-.17-.04-.17-.12,0-.16,0-.34.04-.54.02-.16.07-.26.18-.3.75-.3,1.43-.7,2.06-1.2-.09.03-.2.09-.34.15-.15.08-.27.13-.37.17-.4-.06-.63-.22-.69-.48.09-.08.18-.12.29-.12.16-.03.3-.06.43-.1.41-.16.8-.33,1.15-.53.25,0,.45.04.6.13.38-.24.72-.51,1-.82-.19,0-.4,0-.64,0-1.15.27-1.92.54-2.34.8-.33,0-.59-.04-.78-.13-.02.04-.03.07-.04.1-.1.21-.2.5-.27.86-.05.53-.16.8-.32.82-.17,0-.28-.27-.35-.82.02-.26.13-.55.33-.87.09-.15.19-.38.32-.68,0-.03,0-.07.04-.11,0-.09,0-.16.04-.21.1.06.17.1.17.12ZM37.03,56.42c-.28.43-.62.91-1.02,1.44-.29.36-.53.61-.73.77.43.14.75.21.96.21.56-.09.87-.51.96-1.25v-.1c-.09.02-.15.03-.2.03-.07-.17-.11-.31-.12-.45,0-.18.04-.33.15-.49.02,0,.04.02.06.02-.02-.06-.03-.12-.05-.18ZM35.82,55.96c.32.14.48.39.48.74-.08.03-.16.07-.24.1.06.04.1.11.12.2.17,0,.43-.24.76-.73-.17-.18-.37-.29-.58-.34-.14,0-.24-.05-.31-.16-.09.07-.17.14-.25.19Z"/>
      </g>
      <path class="cls-1" d="M42.75,12.75c0-3.74-3.03-6.77-6.77-6.77-.9,0-1.8.19-2.58.51v-.08c-.19-3.57-3.14-6.41-6.76-6.41s-6.65,2.91-6.77,6.55v.13s-.11-.05-.11-.05c-.88-.41-1.86-.65-2.89-.65-3.74,0-6.77,3.03-6.77,6.77,0,3.04,2,5.6,4.75,6.46l.16.05-.07.1c-.75,1.09-1.19,2.41-1.19,3.83,0,3.74,3.03,6.77,6.77,6.77,2.52,0,4.7-1.39,5.87-3.43l.04.07c1.17,2.01,3.35,3.36,5.85,3.36,3.74,0,6.77-3.03,6.77-6.77,0-1.43-.44-2.75-1.2-3.85l-.05-.07.1-.03c2.8-.83,4.85-3.42,4.85-6.5Z"/>
      <path class="cls-3" d="M25.37,20.89c-.28.35-.78,1.2-.99,0-.21-1.2-.49-1.7-.84-2.37-.35-.69-.4-1.16.84-.95.8.14,1.9-.39,2.85-.88,1.06-.54,1.74.04,2.16.35.42.32.85.74.42,1.16-.42.42-.65.64-.65,1.2s.82.96-.62,1.13c-1.21.14-2.9,0-3.18.35Z"/>
      <path class="cls-3" d="M25.92,13.55c-.34-.07-.76.04-1.05.04s-.81-.28-.92-.46c-.11-.18.35-.46.88-.53.53-.07,1.03,0,1.08-.11.05-.11.08-.79,0-.95-.12-.24-.41-.8-.22-.99.16-.15.59-.22.99-.04,0,0,.58.14.62.71.03.56,0,.88,0,.88,0,0,.95-.18,1.34-.18s.63.21.88.6c.1.16-.15.37-.58.48-.6.15-1.47.16-1.54.16-.11,0-.39,1.34-.28,1.45.08.08.54.02,1.09-.18.33-.12,1.04-.14,1.45.03.4.18,1.06.42,1.09.78.04.35-1.84.32-2.37.35-.53.03-2.43.35-2.79.46-.35.11-1.34.35-1.69.21-.35-.14-.6-.32-.53-.6.07-.28.92-.42,1.48-.39.57.03,1.2-.18,1.2-.18,0,0,.18-1.48-.15-1.55Z"/>
      <path class="cls-3" d="M32.36,25.33c-.28.35-.28.49-.92,0-.63-.5-2.82-1.98-2.82-1.98,0,0-.71-.63.14-.71.85-.07,1.48,0,1.48,0,0,0,.91-.09.91-1.08s-.17-8.93-.17-9.76c0-.64.25-2.49-2.09-2.08-1.62.29-3.46.78-4.66.99-1.2.21-1.56-.21-1.48.99.13,2.13-.31,6.57-1.13,9.39-.62,2.13-2.1,3.37-2.47,3.53-.46.19-.5-.18.28-1.7.96-1.86,1.61-3.5,1.84-5.92.14-1.49.21-5.66,0-6.15-.21-.49-.97-1.65.35-1.4,1.46.27,1.58.15,3.79-.26,2.17-.4,3.2-.73,3.9-.81.71-.07,2.12.07,2.68.42.56.35.92.35.78,1.69-.14,1.34-.28,2.8-.21,4.47.07,1.67.44,6.12.44,7.25s-.37,2.75-.66,3.11Z"/>
      <g>
        <path class="cls-1" d="M5.22,20.7s7.12,5.08,7.34,5.26c1.75,5.02,17.02,11.35,20.92,12.9.03-.41-.02-.83-.15-1.27-.12-.34.19-.5.75-.4.56.1,1.11.45,1.16.82.07.6,0,1.15-.15,1.67l.19.13s4.28.64,5.67,3.07c.71.29,1.68,1.51,1.68,1.51,0,0,.29.11-.94,1.69-.12.15-.23.27-.35.38.33.53.96,1.26,1.23,1.57,1.05,1.19,2.91.46,5.21,1.24,2.31.78,4.11,2.33,4.89,3.35.78,1.02-1.03,1.45-.96,1.82.07.37.19,1.34-.67,1.62-.85.28-1.43-.08-2.36,1.05-.93,1.13-.76-.49-1.26-2.16-.5-1.67-3.82-2.15-5.04-3.25-1.21-1.1-2.49-5.01-2.49-5.01v-.02c-.32-.48-.8-1.25-.9-1.75-1.37-2.29-4.83-3.33-4.83-3.33h-.14c-.3.38-.63.74-.97,1.1-.44.38-1.08.57-1.36.45-.28-.12-.14-.53.23-.93.19-.26.37-.51.55-.77-2.12-.77-10.54-3.89-17.95-7.51-3.2-1.57-7.04-3.65-8.68-6.8-2.15-4.12-.59-6.41-.59-6.41Z"/>
        <path class="cls-1" d="M47.64,20.7s-7.12,5.08-7.34,5.26c-1.76,5.02-17.02,11.35-20.92,12.9-.03-.41.02-.83.16-1.27.12-.34-.19-.5-.75-.4-.56.1-1.11.45-1.16.82-.07.6,0,1.15.15,1.67l-.19.13s-4.28.64-5.67,3.07c-.71.29-1.68,1.51-1.68,1.51,0,0-.29.11.94,1.69.12.15.24.27.35.38-.33.53-.96,1.26-1.23,1.57-1.05,1.19-2.91.46-5.22,1.24-2.31.78-4.11,2.33-4.89,3.35-.78,1.02,1.03,1.45.96,1.82-.07.37-.19,1.34.67,1.62.85.28,1.43-.08,2.36,1.05.93,1.13.76-.49,1.26-2.16.5-1.67,3.82-2.15,5.04-3.25,1.21-1.1,2.49-5.01,2.49-5.01v-.02c.32-.48.8-1.25.9-1.75,1.37-2.29,4.83-3.33,4.83-3.33h.14c.3.38.63.74.97,1.1.44.38,1.08.57,1.36.45.28-.12.14-.53-.23-.93-.19-.26-.37-.51-.55-.77,2.12-.77,10.54-3.89,17.95-7.51,3.2-1.57,7.04-3.65,8.68-6.8,2.15-4.12.59-6.41.59-6.41Z"/>
      </g>
      <path class="cls-1" d="M27.08,17.78l-2.06.42c-.34.07-.07.57,0,1.13.07.56.28.56.49.56s.62-.21,1.57-.34c1.16-.17.91-.79.91-1.35s-.91-.42-.91-.42Z"/>
    </g>
  </g>
</svg>